<?xml version="1.0" standalone="no"?>
<!DOCTYPE svg PUBLIC "-//W3C//DTD SVG 20010904//EN"
 "http://www.w3.org/TR/2001/REC-SVG-20010904/DTD/svg10.dtd">
<svg version="1.0" xmlns="http://www.w3.org/2000/svg"
 width="1280.000000pt" height="988.000000pt" viewBox="0 0 1280.000000 988.000000"
 preserveAspectRatio="xMidYMid meet">
<metadata>
Created by potrace 1.15, written by Peter Selinger 2001-2017
</metadata>
<g transform="translate(0.000000,988.000000) scale(0.100000,-0.100000)"
fill="#000000" stroke="none">
<path d="M9755 9664 c-262 -41 -488 -249 -552 -510 -28 -113 -77 -149 -213
-157 -52 -3 -122 -13 -155 -23 -103 -30 -152 -22 -236 38 -107 77 -155 92
-289 93 -112 0 -117 -1 -193 -37 -95 -45 -183 -126 -238 -218 -21 -36 -39 -61
-39 -57 0 5 -12 -1 -26 -12 -15 -12 -33 -21 -41 -21 -8 0 -11 -5 -7 -11 5 -9
-2 -10 -22 -6 -296 64 -590 -97 -679 -370 -10 -29 -21 -51 -25 -48 -5 3 -19
-8 -32 -24 -15 -18 -39 -31 -64 -35 -133 -25 -280 -157 -329 -296 -43 -123
-37 -258 19 -376 60 -126 163 -215 290 -249 36 -10 63 -22 60 -26 -5 -8 10
-13 20 -6 2 1 24 -26 49 -59 227 -309 875 -459 1454 -338 167 35 192 35 294 2
190 -60 274 -72 524 -72 283 -1 401 19 630 106 113 43 164 41 235 -7 131 -88
296 -157 478 -198 139 -31 442 -31 583 0 288 64 512 190 689 387 29 33 63 61
74 61 11 1 22 7 24 13 2 7 15 12 29 12 14 0 53 7 87 16 189 49 350 212 412
419 25 83 25 267 0 349 -38 128 -114 242 -209 317 -28 23 -52 44 -52 48 -1 3
-5 17 -9 30 -5 16 -11 20 -16 12 -4 -7 -10 15 -13 48 -4 34 -20 90 -37 128
-63 138 -161 231 -325 308 -114 54 -189 73 -340 86 -135 12 -167 21 -195 57
-11 13 -20 21 -21 16 0 -5 -9 24 -19 64 -26 99 -63 164 -137 237 -180 181
-482 226 -746 111 -22 -10 -37 -13 -34 -9 3 4 -16 8 -41 8 -39 0 -53 5 -85 33
-120 104 -261 161 -412 167 -49 2 -103 1 -120 -1z"/>
<path d="M3460 9640 c-81 -10 -147 -32 -230 -77 -166 -90 -279 -239 -335 -441
-13 -48 -24 -84 -24 -80 -1 4 -13 -4 -27 -17 -15 -14 -34 -25 -43 -25 -14 0
-14 -2 -1 -10 10 -7 -7 -10 -57 -10 -74 0 -183 -18 -265 -43 -27 -8 -45 -11
-42 -5 4 6 -9 9 -32 7 -33 -2 -49 5 -104 45 -132 98 -264 127 -405 91 -130
-34 -254 -133 -325 -258 -17 -31 -36 -55 -40 -52 -5 3 -11 1 -15 -5 -13 -20
-75 -42 -102 -35 -15 3 -68 6 -118 6 -161 0 -316 -68 -419 -182 -44 -49 -126
-196 -126 -226 0 -8 -3 -13 -7 -11 -5 2 -20 -9 -35 -24 -15 -15 -21 -28 -15
-29 7 0 -14 -7 -45 -15 -302 -73 -453 -401 -315 -684 58 -117 191 -223 309
-245 21 -4 36 -11 33 -15 -5 -7 9 -16 28 -18 5 -1 28 -27 53 -59 187 -243 631
-390 1119 -370 151 7 266 22 405 56 92 22 109 21 235 -19 166 -51 306 -71 505
-72 244 0 429 32 625 109 50 19 95 35 100 35 71 -5 101 -14 147 -45 124 -82
292 -152 452 -189 117 -27 378 -36 509 -18 296 40 564 173 757 376 41 43 77
79 80 79 22 4 50 18 50 26 0 5 15 9 34 9 47 0 151 34 211 69 118 68 214 186
263 323 37 105 43 273 12 384 -37 138 -109 245 -222 335 -26 20 -45 39 -42 42
3 3 -3 18 -14 34 -11 15 -23 50 -26 78 -13 107 -100 241 -209 322 -145 108
-308 162 -510 170 -70 3 -125 8 -122 11 3 3 -9 13 -25 23 -17 11 -30 24 -30
29 0 6 -4 9 -9 5 -5 -3 -15 21 -21 52 -39 191 -200 352 -410 408 -141 38 -319
26 -444 -29 -46 -21 -60 -22 -111 -14 -45 7 -67 17 -100 46 -134 116 -323 173
-505 152z"/>
<path d="M9665 6415 c-115 -30 -202 -81 -300 -180 -104 -103 -148 -180 -189
-330 -13 -49 -25 -84 -25 -76 -1 8 -9 3 -22 -13 -11 -14 -27 -26 -35 -26 -8 0
-13 -4 -10 -9 3 -4 -39 -11 -92 -14 -54 -4 -134 -16 -178 -28 -43 -12 -86 -21
-94 -20 -8 1 -29 3 -46 4 -17 2 -55 22 -85 45 -160 121 -337 142 -508 60 -82
-39 -183 -137 -234 -228 -20 -36 -37 -62 -37 -58 0 4 -19 -1 -41 -11 -35 -16
-58 -18 -140 -14 -115 7 -197 -7 -287 -48 -140 -63 -263 -199 -303 -336 -6
-23 -15 -40 -19 -38 -4 2 -18 -7 -30 -20 -13 -14 -19 -25 -14 -26 5 0 -25 -10
-67 -23 -42 -12 -99 -37 -128 -55 -102 -66 -184 -187 -210 -309 -50 -240 95
-483 329 -553 25 -8 53 -20 63 -29 10 -8 19 -13 21 -10 2 3 25 -24 52 -59 247
-326 955 -465 1557 -306 67 17 105 20 72 4 -18 -8 -17 -9 5 -5 14 3 67 -8 119
-25 380 -121 845 -97 1214 65 22 9 36 12 32 7 -4 -7 10 -11 39 -11 37 0 59 -9
118 -47 216 -139 460 -206 743 -206 379 0 695 123 938 367 50 50 94 91 97 91
11 1 44 24 35 25 -5 1 30 10 79 20 129 27 206 69 297 159 60 60 85 94 117 161
52 110 65 172 64 295 -1 118 -29 223 -89 323 -34 58 -123 152 -183 195 -14 10
-20 15 -13 12 8 -4 8 1 0 19 -7 13 -14 23 -18 20 -3 -2 -11 26 -17 62 -30 178
-159 332 -357 424 -112 53 -227 80 -373 87 -67 3 -120 8 -117 11 3 3 -9 13
-25 23 -17 11 -30 24 -30 29 0 6 -4 9 -8 6 -5 -3 -15 20 -21 52 -50 227 -244
388 -508 423 -114 15 -229 0 -341 -45 -45 -18 -79 -29 -76 -24 3 4 -12 9 -33
10 -21 0 -43 2 -49 2 -6 1 -33 20 -60 44 -56 48 -138 94 -221 123 -78 28 -272
35 -358 14z"/>
<path d="M3368 6380 c-145 -26 -284 -103 -383 -213 -69 -76 -137 -209 -160
-312 -10 -42 -20 -74 -22 -71 -3 3 -25 -10 -48 -29 -39 -32 -48 -35 -108 -35
-69 0 -173 -19 -245 -44 -24 -9 -40 -11 -37 -6 4 6 -8 11 -27 12 -18 0 -38 2
-45 2 -6 1 -22 11 -35 23 -147 135 -386 161 -557 60 -75 -44 -160 -132 -200
-207 -18 -34 -35 -59 -38 -56 -3 3 -15 -1 -27 -9 -11 -8 -29 -15 -39 -15 -11
0 -15 -4 -11 -12 5 -8 -2 -9 -27 -4 -264 55 -525 -70 -639 -305 -22 -45 -40
-90 -40 -98 0 -8 -3 -12 -6 -9 -3 3 -20 -9 -37 -27 -18 -18 -48 -36 -67 -40
-63 -13 -159 -65 -208 -113 -194 -189 -201 -489 -16 -683 62 -64 162 -122 233
-134 23 -4 38 -11 35 -17 -3 -5 3 -12 14 -15 12 -3 33 -23 48 -44 216 -312
874 -466 1463 -343 166 35 180 35 283 3 190 -59 329 -79 541 -79 228 0 406 32
607 107 89 34 130 40 174 27 13 -4 16 -2 11 6 -4 6 19 -6 51 -28 141 -95 304
-165 484 -205 78 -17 129 -21 290 -22 224 0 303 12 487 77 195 69 341 164 483
315 46 48 80 82 76 75 -6 -10 -2 -10 18 -1 14 7 23 16 20 20 -3 5 10 9 28 9
44 0 125 22 190 52 254 118 391 448 307 743 -31 109 -117 238 -204 305 -30 23
-54 45 -53 48 2 13 -14 42 -21 38 -4 -3 -13 27 -19 66 -49 284 -359 501 -728
509 -89 2 -103 5 -134 28 -55 41 -57 44 -74 111 -24 94 -71 173 -142 240 -77
71 -131 104 -227 137 -142 49 -352 40 -490 -21 -42 -18 -60 -21 -91 -14 -21 5
-41 6 -44 4 -2 -3 -32 17 -65 44 -121 98 -249 148 -392 155 -49 2 -111 0 -137
-5z"/>
<path d="M9704 3201 c-83 -13 -178 -49 -244 -92 -163 -105 -260 -244 -311
-444 -10 -38 -18 -64 -18 -56 -1 8 -9 3 -21 -12 -11 -14 -29 -29 -40 -32 -11
-4 -18 -11 -15 -16 4 -5 -25 -9 -69 -9 -77 0 -180 -18 -254 -44 -24 -9 -40
-11 -37 -6 3 6 -5 10 -19 10 -13 0 -32 3 -42 7 -13 5 -15 3 -9 -8 5 -7 -13 5
-40 27 -69 58 -130 90 -200 108 -114 30 -245 15 -349 -42 -67 -37 -163 -134
-208 -212 -21 -36 -38 -61 -38 -57 0 4 -18 -4 -40 -18 -38 -24 -43 -25 -107
-15 -260 42 -527 -114 -619 -363 -13 -34 -23 -59 -23 -55 -1 4 -13 -5 -28 -20
-15 -15 -27 -30 -26 -33 1 -4 -17 -10 -39 -13 -111 -18 -253 -124 -310 -232
-78 -146 -75 -339 7 -480 62 -106 196 -203 304 -220 24 -4 37 -10 31 -14 -9
-5 -8 -9 2 -12 7 -3 16 -5 19 -4 4 0 27 -26 52 -60 124 -165 370 -285 704
-345 92 -17 162 -22 318 -23 210 -1 304 9 480 49 120 27 132 27 260 -13 183
-57 257 -67 505 -67 179 0 246 4 325 19 100 19 253 64 353 105 29 12 51 18 49
14 -3 -5 16 -8 41 -8 38 0 60 -8 112 -41 144 -92 291 -151 470 -190 129 -28
449 -27 580 3 269 61 488 179 658 357 42 44 83 81 91 83 9 1 20 8 26 16 5 7
33 16 61 20 277 32 494 297 494 602 0 209 -83 380 -243 507 -27 21 -46 38 -42
38 4 0 -2 15 -13 33 -11 17 -22 54 -26 82 -15 121 -114 260 -248 348 -145 96
-274 136 -457 144 -69 3 -130 10 -135 14 -69 53 -79 67 -97 137 -23 93 -59
153 -134 227 -175 173 -463 223 -712 123 -82 -33 -149 -22 -213 34 -59 52
-149 101 -232 127 -77 23 -210 33 -284 22z"/>
<path d="M3312 3140 c-240 -65 -428 -262 -486 -510 -10 -43 -22 -67 -40 -81
-14 -11 -32 -26 -39 -33 -7 -7 -53 -16 -104 -20 -51 -4 -127 -16 -170 -28
-122 -33 -156 -27 -252 40 -94 66 -177 94 -281 94 -184 0 -333 -92 -439 -270
-23 -37 -44 -66 -48 -66 -5 1 -18 -2 -31 -7 -13 -5 -28 -9 -33 -9 -6 0 -7 -5
-3 -12 5 -8 2 -9 -12 -4 -10 4 -57 10 -104 13 -257 16 -488 -133 -576 -370
-13 -34 -23 -59 -23 -55 -1 4 -17 -7 -36 -26 -20 -20 -50 -36 -72 -41 -20 -3
-62 -19 -92 -35 -321 -163 -349 -616 -51 -823 24 -17 80 -43 122 -57 43 -15
75 -29 71 -33 -5 -6 4 -9 23 -6 3 0 18 -17 31 -38 83 -124 235 -227 447 -302
312 -110 771 -123 1117 -31 79 21 106 24 74 9 -17 -8 -15 -9 9 -5 16 2 48 -3
70 -11 62 -21 181 -52 276 -70 62 -12 143 -17 300 -17 185 0 230 3 324 22 119
25 271 71 354 108 29 13 50 19 46 13 -3 -6 11 -9 38 -8 37 2 54 -4 107 -40
127 -87 293 -154 476 -193 143 -31 417 -31 560 0 276 59 479 166 660 347 50
49 92 90 95 91 19 4 39 17 35 23 -2 4 31 13 73 19 171 26 328 141 410 300 46
89 59 129 72 229 27 205 -65 440 -222 564 -29 23 -53 45 -53 50 0 5 -7 17 -16
27 -9 10 -21 47 -28 83 -6 35 -26 92 -42 127 -34 69 -128 176 -196 224 -146
100 -346 158 -544 158 -44 0 -68 4 -64 10 3 6 0 10 -7 10 -31 1 -66 49 -82
110 -49 191 -209 341 -421 395 -131 33 -325 15 -454 -44 -33 -14 -50 -17 -64
-10 -10 6 -28 9 -41 7 -15 -2 -39 11 -70 38 -68 58 -143 102 -228 131 -102 36
-262 42 -366 13z"/>
</g>
</svg>
